<?xml version="1.0" standalone="no"?>
<!DOCTYPE svg PUBLIC "-//W3C//DTD SVG 20010904//EN"
 "http://www.w3.org/TR/2001/REC-SVG-20010904/DTD/svg10.dtd">
<svg version="1.0" xmlns="http://www.w3.org/2000/svg"
 width="505.000000pt" height="176.000000pt" viewBox="0 0 505.000000 176.000000"
 preserveAspectRatio="xMidYMid meet">

<g transform="translate(0.000000,176.000000) scale(0.100000,-0.100000)"
fill="#000000" stroke="none">
<path d="M4756 1692 c-2 -2 -35 -5 -72 -8 -46 -3 -71 -9 -77 -19 -8 -16 -37
-21 -37 -7 0 11 -90 6 -101 -5 -6 -6 -7 -18 -3 -27 7 -19 10 -19 154 1 19 3
58 7 85 9 28 3 61 6 75 8 14 2 33 4 43 4 20 2 24 41 5 44 -28 3 -69 3 -72 0z"/>
<path d="M4252 1619 c-17 -26 -7 -37 19 -21 11 7 24 10 29 7 5 -3 11 -1 15 5
5 7 -31 30 -48 30 -1 0 -8 -9 -15 -21z"/>
<path d="M4143 1608 c-28 -13 -30 -35 -4 -33 18 1 51 27 51 39 0 9 -22 6 -47
-6z"/>
<path d="M4009 1603 c-1 -5 -1 -12 0 -16 1 -5 -8 -6 -19 -2 -24 8 -70 -1 -70
-13 0 -5 24 -8 53 -8 50 1 87 17 87 37 0 11 -50 12 -51 2z"/>
<path d="M4856 1592 c-6 -10 0 -92 8 -100 3 -3 14 2 23 11 26 23 23 91 -5 95
-11 2 -23 -1 -26 -6z"/>
<path d="M3830 1564 c-13 -15 -6 -17 24 -5 17 6 17 8 3 14 -8 3 -21 -1 -27 -9z"/>
<path d="M3681 1544 c0 -11 3 -14 6 -6 3 7 2 16 -1 19 -3 4 -6 -2 -5 -13z"/>
<path d="M3720 1549 c0 -5 5 -7 10 -4 6 3 10 8 10 11 0 2 -4 4 -10 4 -5 0 -10
-5 -10 -11z"/>
<path d="M3508 1540 c-31 -4 -64 -15 -73 -24 -16 -16 -14 -16 31 -11 57 7 104
24 104 36 0 5 -1 8 -2 8 -2 -1 -29 -5 -60 -9z"/>
<path d="M3237 1519 c-9 -6 -15 -14 -12 -20 4 -5 1 -9 -4 -9 -6 0 -11 -4 -11
-10 0 -5 12 -10 26 -10 20 0 25 4 20 16 -4 10 -2 13 7 7 21 -13 127 2 127 18
0 5 -24 7 -54 4 -32 -3 -57 -1 -61 5 -8 12 -15 12 -38 -1z"/>
<path d="M3113 1484 c-3 -8 -12 -13 -19 -10 -8 3 -14 0 -14 -5 0 -7 9 -9 23
-5 12 3 30 6 40 6 9 0 17 7 17 15 0 20 -39 19 -47 -1z"/>
<path d="M2830 1464 c0 -10 -5 -14 -14 -11 -8 3 -17 3 -20 0 -9 -10 62 -32 84
-26 16 4 36 31 28 38 -2 1 -20 5 -40 9 -31 6 -38 4 -38 -10z"/>
<path d="M2595 1442 c-11 -2 -24 -8 -29 -13 -6 -5 -18 -9 -28 -9 -21 0 -24
-15 -5 -23 12 -4 33 -3 126 7 39 4 71 20 60 29 -7 7 -103 14 -124 9z"/>
<path d="M4610 1445 c0 -6 -15 -9 -32 -9 -18 1 -42 -6 -52 -15 -11 -9 -16 -10
-12 -3 5 8 -1 12 -18 12 -14 0 -26 -4 -26 -10 0 -5 -7 -10 -15 -10 -12 0 -14
-7 -9 -26 4 -15 7 -35 8 -46 1 -10 7 -23 15 -27 8 -5 15 -20 17 -33 1 -12 3
-26 3 -30 1 -5 9 -8 19 -8 13 0 14 -2 4 -9 -16 -10 -18 -36 -7 -106 4 -27 8
-56 8 -64 0 -10 12 -12 51 -8 28 4 44 3 36 0 -8 -3 -20 -13 -27 -22 -6 -9 -20
-16 -30 -16 -15 0 -18 -8 -17 -57 1 -32 -3 -58 -8 -58 -5 0 -6 -21 -3 -47 12
-84 11 -84 58 -77 23 3 60 7 82 9 47 5 161 17 190 21 11 1 26 3 33 3 10 1 12
14 7 54 -3 28 -7 64 -9 79 -1 14 -10 38 -19 52 -19 29 -22 46 -7 46 6 0 10 11
10 25 0 16 -6 25 -15 25 -8 0 -15 5 -15 10 0 11 -33 13 -67 4 -21 -6 -22 -10
-17 -78 2 -39 1 -76 -3 -82 -5 -6 -22 -14 -40 -17 -38 -7 -43 2 -49 91 -2 35
-6 67 -9 73 -4 5 -8 53 -11 106 -3 53 -7 99 -9 103 -3 4 2 13 10 20 18 15 10
97 -11 120 -8 8 -14 10 -14 5z m221 -498 c-8 -8 -11 -5 -11 9 0 27 14 41 18
19 2 -9 -1 -22 -7 -28z m-271 8 c0 -8 -2 -15 -4 -15 -2 0 -6 7 -10 15 -3 8 -1
15 4 15 6 0 10 -7 10 -15z m35 -25 c3 -6 -1 -7 -9 -4 -18 7 -21 14 -7 14 6 0
13 -4 16 -10z"/>
<path d="M2473 1418 c2 -7 10 -13 17 -13 7 0 15 6 18 13 2 7 -5 12 -18 12 -13
0 -20 -5 -17 -12z"/>
<path d="M4270 1398 c0 -4 9 -17 20 -28 11 -11 15 -20 9 -20 -6 0 -8 -7 -5
-16 4 -12 2 -15 -9 -10 -18 7 -21 -24 -3 -42 9 -9 9 -12 0 -12 -7 0 -12 5 -12
10 0 21 -31 22 -48 3 -17 -19 -18 -19 -36 -1 -16 15 -17 18 -4 18 9 0 18 7 22
15 4 10 -1 15 -14 15 -22 0 -26 10 -9 27 18 18 2 32 -29 23 -16 -4 -26 -13
-23 -21 2 -8 4 -18 5 -24 1 -5 5 -16 9 -22 5 -8 3 -13 -7 -13 -13 0 -16 -14
-18 -67 -1 -38 -1 -79 0 -93 1 -14 3 -46 4 -72 2 -41 5 -48 22 -48 12 0 28 5
36 11 12 8 9 9 -12 5 -15 -3 -29 -2 -32 3 -6 9 58 26 81 22 6 -1 12 6 12 16 3
162 4 168 13 138 5 -16 10 -42 13 -57 7 -49 16 -69 28 -61 7 4 6 -1 -2 -10
-12 -16 -11 -20 7 -37 12 -11 26 -20 32 -20 5 0 10 -3 10 -8 0 -4 -20 -7 -45
-7 -26 0 -47 -5 -50 -12 -2 -7 -11 -10 -20 -7 -11 5 -18 0 -21 -13 -4 -14 -13
-19 -34 -18 -41 2 -48 -4 -52 -55 -2 -25 -10 -55 -16 -67 -10 -19 -10 -23 0
-23 9 0 10 -2 2 -8 -8 -4 -9 -21 -5 -47 l7 -40 44 2 c63 3 121 11 127 17 3 2
2 18 -2 34 -5 23 -10 29 -26 25 -20 -6 -27 15 -9 33 5 5 6 24 1 47 -5 20 -6
37 -2 38 19 2 49 8 68 12 19 5 22 0 28 -35 5 -26 3 -43 -4 -48 -6 -3 -11 -22
-10 -41 3 -66 4 -67 65 -57 30 5 59 6 65 3 5 -4 9 -2 9 3 0 5 10 8 22 8 20 -1
23 3 20 34 -5 62 -13 88 -28 94 -10 4 -12 2 -8 -6 4 -6 3 -8 -4 -4 -6 3 -22 1
-35 -5 -18 -8 -30 -8 -43 0 -17 9 -18 10 -1 11 9 0 17 5 17 10 0 6 9 10 20 10
12 0 20 7 20 18 1 16 1 16 11 0 5 -10 14 -18 19 -18 9 0 -13 92 -30 122 -6 10
-10 29 -10 43 0 26 -14 34 -24 13 -3 -7 -4 -1 -1 13 2 14 2 29 -2 33 -4 3 -8
25 -10 47 -2 22 -9 53 -15 67 -15 35 -13 31 -22 77 -12 68 -23 85 -51 83 -14
-1 -25 -6 -25 -10z m45 -408 c3 -6 -1 -7 -9 -4 -18 7 -21 14 -7 14 6 0 13 -4
16 -10z m-50 -38 c-3 -3 -11 0 -18 7 -9 10 -8 11 6 5 10 -3 15 -9 12 -12z
m-95 -22 c0 -5 -8 -10 -17 -10 -15 0 -16 2 -3 10 19 12 20 12 20 0z m40 -84
c0 -3 -4 -8 -10 -11 -5 -3 -10 -1 -10 4 0 6 5 11 10 11 6 0 10 -2 10 -4z"/>
<path d="M4897 1390 c-3 -11 -1 -23 5 -26 12 -7 15 -4 20 20 4 26 -18 32 -25
6z"/>
<path d="M2263 1378 c-13 -6 -23 -15 -23 -21 0 -5 10 -7 23 -3 12 3 32 6 45 6
12 0 22 6 22 13 0 16 -38 19 -67 5z"/>
<path d="M4216 1375 c4 -8 7 -15 9 -15 2 0 5 7 9 15 3 9 0 15 -9 15 -9 0 -12
-6 -9 -15z"/>
<path d="M1927 1368 c-10 -5 -22 -6 -28 -2 -7 4 -10 1 -7 -7 5 -17 65 -28 93
-18 11 4 29 10 39 14 14 4 16 9 9 16 -7 7 -17 7 -32 -3 -16 -10 -25 -10 -39
-1 -12 7 -24 8 -35 1z"/>
<path d="M3875 1360 c-33 -4 -40 -9 -39 -27 0 -12 -3 -20 -7 -18 -13 9 -7 -64
7 -76 13 -11 20 -37 29 -109 2 -19 4 -35 5 -35 2 0 7 -57 9 -105 2 -51 32 -68
71 -40 23 16 28 17 24 6 -7 -18 21 -23 31 -6 3 6 1 10 -5 10 -7 0 -8 6 -1 18
11 21 12 90 0 97 -4 3 -6 11 -3 18 2 7 -2 32 -10 54 -8 23 -11 43 -6 45 4 2
10 17 12 33 3 29 2 30 -34 27 -20 -1 -39 1 -41 5 -3 4 9 9 26 10 30 2 57 24
57 46 0 5 -8 6 -17 3 -17 -6 -17 -5 0 8 17 13 23 35 10 37 -24 4 -83 3 -118
-1z m85 -251 c0 -5 -15 -8 -34 -6 -19 1 -32 5 -30 8 6 10 64 8 64 -2z m0 -103
c0 -3 -4 -8 -10 -11 -5 -3 -10 -1 -10 4 0 6 5 11 10 11 6 0 10 -2 10 -4z"/>
<path d="M1724 1334 c6 -16 -9 -19 -19 -4 -15 24 -65 -1 -65 -33 0 -7 118 0
157 8 49 11 29 37 -31 41 -38 2 -47 0 -42 -12z"/>
<path d="M1582 1325 c-35 -19 -49 -35 -31 -35 25 0 69 24 69 38 0 15 -8 14
-38 -3z"/>
<path d="M3558 1334 c-4 -3 -17 -7 -31 -8 -41 -5 -84 -46 -96 -94 -11 -40 -10
-45 11 -63 13 -11 37 -27 55 -34 17 -8 34 -19 38 -25 8 -13 -41 8 -79 34 l-28
19 4 -41 c2 -23 0 -42 -5 -42 -5 0 -6 -8 -2 -17 3 -10 9 -47 11 -83 3 -36 8
-72 11 -80 3 -8 5 -23 4 -33 -1 -10 3 -34 10 -55 7 -20 13 -44 14 -52 7 -68
60 -102 155 -102 67 1 111 13 166 46 31 18 31 20 27 85 -8 148 -12 161 -45
161 -16 0 -18 -3 -9 -14 10 -12 5 -13 -30 -5 -23 5 -44 7 -47 4 -3 -3 -5 -22
-4 -43 1 -36 -14 -91 -27 -93 -52 -4 -80 -5 -76 -1 3 3 -1 12 -8 20 -9 13 -9
14 1 8 9 -5 12 2 12 26 0 46 -18 63 -42 41 -10 -9 -21 -13 -24 -10 -4 4 7 14
24 24 31 18 31 19 25 73 -3 30 -6 65 -6 78 1 12 -3 22 -8 22 -4 0 -5 20 -2 45
4 33 2 45 -8 45 -7 0 -3 7 9 16 15 10 21 22 18 33 -4 9 3 5 15 -9 12 -14 23
-24 25 -22 13 8 25 -2 31 -25 8 -30 10 -39 12 -51 1 -8 53 -6 99 4 17 3 22 11
22 34 0 17 -3 29 -7 29 -41 -7 -97 21 -73 36 8 5 11 4 7 -2 -4 -6 0 -14 9 -17
22 -9 24 -8 24 9 0 8 -5 15 -10 15 -6 0 -5 6 2 14 16 17 29 11 21 -9 -3 -8 0
-15 6 -15 11 0 16 26 12 65 -2 30 -41 56 -78 53 -18 -1 -35 1 -39 5 -9 8 -88
10 -96 1z m-25 -84 c6 -23 -3 -32 -22 -20 -12 6 -11 11 0 24 8 8 15 15 15 16
1 0 4 -9 7 -20z m-20 -171 c4 -16 3 -18 -9 -8 -7 6 -11 15 -8 20 8 13 11 11
17 -12z m47 -97 c4 -3 -29 1 -60 7 -3 1 2 5 10 11 9 6 20 5 30 -3 8 -6 17 -13
20 -15z m147 -84 c-3 -8 -6 -5 -6 6 -1 11 2 17 5 13 3 -3 4 -12 1 -19z m-207
-92 c0 -3 -4 -8 -10 -11 -5 -3 -10 -1 -10 4 0 6 5 11 10 11 6 0 10 -2 10 -4z"/>
<path d="M4884 1308 c3 -13 6 -36 6 -51 0 -16 4 -26 10 -22 22 14 30 -7 13
-35 -13 -23 -14 -34 -6 -53 7 -14 9 -35 6 -47 -5 -20 -4 -21 16 -10 17 9 21
17 17 33 -4 12 -8 50 -10 85 -3 40 -10 70 -20 81 -9 10 -16 23 -16 29 0 7 -5
12 -11 12 -7 0 -9 -9 -5 -22z"/>
<path d="M1450 1305 c0 -9 6 -12 15 -9 8 4 15 10 15 15 0 5 -7 9 -15 9 -8 0
-15 -7 -15 -15z"/>
<path d="M1363 1303 c-7 -2 -13 -12 -13 -20 0 -12 6 -13 28 -8 15 4 33 8 40 8
17 1 15 14 -4 21 -18 7 -33 7 -51 -1z"/>
<path d="M3213 1283 c-25 -5 -31 -31 -11 -51 9 -9 9 -15 0 -24 -16 -16 -15
-21 7 -47 11 -13 22 -28 25 -34 5 -9 7 -9 12 0 3 7 11 10 18 7 7 -3 32 3 54
13 40 17 52 35 52 82 0 18 -4 22 -17 16 -10 -4 -26 -8 -36 -10 -16 -4 -17 -2
-5 13 7 9 18 20 23 24 6 4 -2 8 -17 8 -15 0 -34 -7 -42 -16 -16 -15 -17 -15
-20 8 -1 14 -13 17 -43 11z"/>
<path d="M1122 1268 c-20 -20 -14 -28 20 -25 40 3 54 37 16 37 -13 0 -29 -5
-36 -12z"/>
<path d="M1203 1267 c4 -14 42 -21 64 -13 23 9 9 18 -32 22 -24 1 -35 -1 -32
-9z"/>
<path d="M975 1262 c-38 -4 -49 -15 -40 -41 5 -17 10 -19 31 -10 14 5 29 7 34
4 14 -9 80 25 80 41 0 15 -16 16 -105 6z"/>
<path d="M3037 1264 c-2 -2 -77 -13 -91 -14 -5 0 -5 -15 -1 -32 4 -18 7 -43 6
-55 -1 -26 8 -29 28 -10 11 10 13 9 7 -6 -3 -10 -3 -43 0 -73 5 -42 11 -55 28
-61 11 -4 24 -6 29 -5 15 4 6 -34 -12 -45 -18 -11 -19 -29 -12 -171 1 -9 8
-11 24 -7 22 6 22 6 -2 -13 -22 -18 -23 -23 -16 -86 6 -58 10 -68 30 -76 14
-5 37 -5 56 0 17 5 36 7 40 4 11 -7 11 8 -1 98 -12 95 -21 218 -16 218 3 0 30
-52 62 -115 33 -66 63 -115 71 -115 8 0 11 -5 8 -11 -4 -5 -4 -22 0 -36 6 -24
8 -25 58 -19 29 3 58 6 65 6 6 0 12 11 12 24 0 13 -6 26 -12 29 -10 3 -10 9 0
26 12 20 11 23 -8 28 -12 3 -17 9 -12 12 11 7 15 30 13 74 -1 18 -7 27 -18 28
-11 0 -13 3 -5 6 22 9 14 43 -10 43 -22 1 -22 1 -3 12 11 6 21 11 21 12 1 1
-3 46 -10 101 l-12 100 -29 -3 c-17 -2 -44 -13 -61 -24 -30 -21 -30 -21 -22
-82 4 -34 10 -67 13 -73 2 -7 2 -13 -1 -13 -2 0 -14 21 -25 48 -25 58 -98 203
-111 220 -12 14 -32 16 -23 2 3 -5 2 -10 -4 -10 -15 0 -26 23 -13 28 7 2 12
12 12 22 0 13 -7 17 -26 16 -14 0 -26 -2 -27 -2z m3 -38 c0 -2 -7 -7 -16 -10
-8 -3 -12 -2 -9 4 6 10 25 14 25 6z m277 -212 c-3 -3 -12 -4 -19 -1 -8 3 -5 6
6 6 11 1 17 -2 13 -5z m-195 -76 c-9 -9 -12 -7 -12 12 0 19 3 21 12 12 9 -9 9
-15 0 -24z m-33 -1 c-2 -1 -13 -9 -24 -17 -19 -14 -19 -14 -6 3 7 9 18 17 24
17 6 0 8 -1 6 -3z m258 -73 c-3 -3 -12 -4 -19 -1 -8 3 -5 6 6 6 11 1 17 -2 13
-5z m-267 -30 c0 -8 -5 -12 -10 -9 -6 4 -8 11 -5 16 9 14 15 11 15 -7z m45
-183 c-3 -6 -11 -11 -17 -11 -6 0 -6 6 2 15 14 17 26 13 15 -4z"/>
<path d="M2879 1246 c-2 -2 -38 -7 -79 -11 -41 -4 -86 -8 -100 -10 -14 -2 -56
-6 -93 -9 -37 -3 -72 -8 -77 -11 -13 -8 -13 -35 0 -35 7 0 7 -6 0 -19 -5 -11
-7 -27 -3 -37 8 -22 46 -60 56 -57 4 2 7 -2 7 -7 0 -5 -4 -10 -10 -10 -10 0
-4 -146 7 -164 4 -6 7 -32 6 -58 0 -26 4 -45 8 -42 5 3 6 -2 3 -10 -3 -8 -1
-24 5 -35 8 -14 8 -22 1 -26 -6 -4 -8 -16 -4 -27 4 -14 2 -18 -5 -14 -19 12
-25 -23 -7 -43 12 -13 13 -20 5 -28 -23 -23 -3 -41 43 -38 112 9 163 16 169
26 4 7 8 8 10 1 3 -6 30 -6 79 2 l75 11 -1 60 c-1 65 -8 120 -19 147 -5 12
-17 15 -46 13 -49 -3 -77 -27 -81 -68 -2 -17 -9 -31 -18 -33 -8 -1 -28 -5 -44
-9 -20 -6 -27 -4 -22 3 3 6 2 13 -3 17 -6 3 -8 21 -6 40 3 19 0 46 -5 60 -9
24 -8 25 23 25 49 1 63 18 62 75 -1 44 -3 50 -20 47 -18 -3 -64 -3 -92 0 -8 1
-8 6 0 19 8 13 8 25 -1 44 -8 17 -8 24 -1 20 6 -4 9 0 7 11 -2 16 4 19 37 19
34 0 42 -4 53 -28 13 -26 16 -27 73 -24 33 3 62 7 64 9 3 3 1 18 -4 34 -9 26
-20 113 -21 157 0 15 -20 24 -31 13z m-162 -82 c-3 -3 -12 -4 -19 -1 -8 3 -5
6 6 6 11 1 17 -2 13 -5z m148 -92 c-3 -3 -11 0 -18 7 -9 10 -8 11 6 5 10 -3
15 -9 12 -12z m-225 -92 c-19 -13 -30 -13 -30 0 0 6 10 10 23 10 18 0 19 -2 7
-10z m83 -97 c-7 -22 -32 -43 -51 -43 -7 0 -12 6 -9 13 2 6 10 11 17 9 7 -2
10 3 7 12 -5 13 5 20 35 25 4 0 5 -7 1 -16z m204 -201 c-6 -37 -32 -48 -65
-28 -16 10 -5 27 13 19 8 -3 15 0 15 6 0 6 -6 11 -12 12 -7 0 -4 4 7 8 27 11
45 3 42 -17z m-152 -22 c3 -5 1 -10 -4 -10 -6 0 -11 5 -11 10 0 6 2 10 4 10 3
0 8 -4 11 -10z m160 -40 c3 -6 -1 -7 -9 -4 -18 7 -21 14 -7 14 6 0 13 -4 16
-10z"/>
<path d="M563 1204 c-3 -8 -12 -13 -21 -12 -9 2 -18 -4 -20 -14 -3 -17 17 -18
83 -3 36 8 37 8 30 27 -8 20 -64 21 -72 2z"/>
<path d="M650 1210 c-12 -7 -12 -10 3 -16 21 -8 29 -3 19 13 -5 8 -13 9 -22 3z"/>
<path d="M731 1204 c-12 -14 -11 -16 4 -12 10 1 20 9 23 16 5 17 -10 15 -27
-4z"/>
<path d="M295 1182 c-33 -6 -39 -19 -14 -33 29 -15 80 -14 90 2 18 30 -12 42
-76 31z"/>
<path d="M2269 1176 c-2 -2 -39 -6 -81 -9 -43 -3 -82 -9 -88 -12 -16 -10 -12
-45 6 -52 11 -4 14 -13 9 -31 -3 -14 -1 -28 4 -32 6 -3 12 -26 15 -50 3 -41
26 -71 26 -35 0 9 5 13 11 10 6 -4 8 -14 4 -23 -3 -8 0 -19 7 -24 9 -5 6 -8
-8 -8 -12 0 -25 -7 -28 -16 -8 -21 13 -47 32 -39 10 3 12 0 8 -10 -4 -10 1
-15 17 -16 17 -1 15 -3 -8 -8 -21 -4 -31 -13 -33 -28 -3 -17 1 -21 17 -18 14
2 18 -1 14 -11 -3 -8 -9 -14 -13 -14 -4 0 -8 -25 -9 -56 0 -32 -6 -63 -12 -70
-7 -9 -8 -25 -4 -41 5 -16 7 -39 6 -52 -3 -30 15 -42 45 -30 13 4 50 11 81 13
81 7 116 17 130 35 8 11 12 12 13 4 0 -21 18 -15 56 20 46 42 59 107 23 123
l-23 10 24 24 c21 21 22 29 17 88 -4 36 -10 68 -14 71 -5 3 -8 33 -7 66 1 75
-9 98 -39 89 -21 -6 -21 -6 -4 13 9 11 17 25 17 31 0 22 -58 71 -96 81 -51 14
-54 14 -54 -4 0 -8 -5 -15 -11 -15 -5 0 -7 5 -4 10 3 6 2 10 -4 10 -5 0 -16 2
-23 5 -8 3 -16 4 -19 1z m-29 -93 c0 -3 -12 -14 -26 -25 -14 -12 -29 -30 -33
-42 -6 -15 -8 -9 -8 24 -1 25 1 48 3 51 4 7 64 -1 64 -8z m35 -3 c3 -6 -1 -7
-9 -4 -18 7 -21 14 -7 14 6 0 13 -4 16 -10z m56 -43 c21 -6 28 -15 38 -59 7
-29 14 -73 16 -98 9 -125 23 -168 49 -153 6 3 -8 -12 -31 -35 -39 -39 -75 -53
-87 -34 -6 10 -23 116 -30 187 -3 28 -8 76 -11 108 -8 69 0 113 18 99 7 -5 24
-12 38 -15z m109 -47 c11 -7 7 -10 -17 -10 -18 0 -33 5 -33 10 0 13 30 13 50
0z m-8 -145 c-6 -33 -18 -40 -18 -12 0 17 11 35 22 37 1 0 -1 -11 -4 -25z"/>
<path d="M1930 1136 l-65 -11 3 -50 c2 -27 10 -57 17 -65 12 -14 41 -189 47
-283 1 -21 5 -40 8 -42 10 -6 2 -77 -10 -89 -13 -13 -13 -46 0 -46 5 0 7 -7 4
-15 -4 -8 -4 -25 0 -38 5 -20 11 -23 43 -20 21 1 43 9 49 18 9 13 13 13 22 2
7 -8 24 -12 43 -9 l32 5 -6 56 c-3 30 -12 60 -19 66 -7 5 -14 17 -16 25 -2 8
-7 17 -10 20 -4 3 -8 32 -8 65 -1 33 -4 76 -7 95 -2 19 -5 52 -6 73 -1 34 -3
37 -26 33 -22 -4 -25 -1 -25 25 0 16 5 29 11 29 5 0 7 5 4 10 -4 6 5 20 19 31
25 20 35 49 17 49 -6 0 -7 16 -4 35 7 45 -13 47 -25 3 -4 -17 -13 -33 -18 -35
-15 -5 -12 40 4 50 6 4 12 12 12 17 0 12 -5 11 -90 -4z m110 -461 c-7 -9 -15
-13 -19 -10 -3 3 1 10 9 15 21 14 24 12 10 -5z"/>
<path d="M35 1120 c-3 -5 1 -10 10 -10 9 0 13 5 10 10 -3 6 -8 10 -10 10 -2 0
-7 -4 -10 -10z"/>
<path d="M1798 1125 c-2 -2 -31 -7 -63 -10 -33 -3 -88 -10 -122 -15 -34 -6
-66 -9 -70 -8 -4 1 -25 -1 -46 -6 l-38 -7 4 -45 c3 -24 12 -55 20 -67 17 -26
24 -59 32 -147 3 -36 8 -77 10 -90 3 -14 7 -47 10 -73 3 -27 7 -53 10 -57 3
-5 31 -6 62 -3 51 5 56 4 44 -10 -9 -12 -27 -15 -63 -13 l-50 3 4 -59 c5 -65
18 -81 58 -71 33 8 32 6 20 38 -9 23 -7 28 9 32 11 3 22 11 25 19 3 8 12 14
21 14 18 0 18 0 2 70 -23 96 -20 104 40 111 80 10 81 11 77 64 -3 26 -7 52
-10 56 -5 8 -70 5 -104 -6 -8 -2 -19 -1 -25 3 -11 7 -11 10 -13 71 -2 33 -5
38 -21 34 -10 -3 -22 0 -25 6 -5 7 12 11 52 11 45 0 63 -4 76 -19 11 -12 26
-17 44 -14 23 4 24 3 10 -7 -31 -19 -20 -27 27 -20 25 4 47 9 49 11 4 4 -11
140 -19 175 -4 20 -28 38 -37 29z m-188 -429 c0 -2 -7 -7 -16 -10 -8 -3 -12
-2 -9 4 6 10 25 14 25 6z"/>
<path d="M1330 1070 c-30 -5 -58 -6 -62 -4 -5 3 -12 -6 -17 -20 -11 -27 2 -91
24 -116 7 -8 15 -37 19 -65 4 -27 9 -68 12 -90 l5 -40 -17 30 c-34 61 -68 130
-66 138 1 4 -2 7 -6 7 -5 0 -14 11 -20 25 -6 14 -15 25 -19 24 -5 -1 -18 -1
-30 0 -29 1 -30 16 -2 18 29 3 34 10 18 26 -16 16 -69 28 -69 16 0 -4 -18 -10
-39 -14 -35 -6 -40 -10 -46 -43 -6 -30 -3 -38 17 -53 16 -13 26 -15 35 -7 9 7
13 7 13 -1 0 -6 8 -11 18 -11 14 0 15 -2 2 -10 -8 -5 -17 -5 -20 0 -8 12 -27
-2 -27 -20 0 -8 -2 -19 -3 -25 -5 -22 1 -35 17 -35 15 0 15 -1 0 -18 -10 -10
-15 -21 -13 -23 3 -2 8 -38 11 -79 4 -45 12 -79 20 -86 9 -7 10 -15 4 -25 -15
-24 -10 -57 13 -73 19 -14 19 -16 5 -22 -19 -7 -23 -50 -7 -74 9 -13 12 -12
26 5 9 12 11 21 4 23 -17 6 -11 36 10 49 15 10 18 10 14 0 -4 -11 17 -25 79
-55 13 -6 7 42 -8 72 -9 17 -18 55 -21 85 -3 31 -9 60 -14 66 -5 6 -6 24 -2
40 8 28 8 28 35 -27 15 -30 27 -60 27 -66 0 -6 6 -15 13 -19 7 -4 21 -29 31
-55 10 -27 22 -48 27 -48 6 0 8 -4 5 -9 -3 -5 3 -20 14 -34 18 -22 24 -24 52
-17 17 5 34 7 39 5 20 -13 36 8 34 43 -1 20 -3 40 -4 43 0 3 -24 5 -51 5 -28
0 -56 6 -63 13 -10 11 -8 12 12 6 19 -6 23 -4 18 8 -3 8 -1 19 5 25 12 12 41
4 32 -9 -3 -5 3 -9 13 -9 24 0 29 33 19 113 -9 74 -17 99 -31 93 -9 -3 -12 0
-8 10 3 7 9 14 14 14 12 0 0 131 -13 147 -7 8 -3 17 11 29 17 15 19 25 14 63
-5 40 -25 74 -42 70 -3 -1 -31 -5 -61 -9z m-251 -117 c4 -3 -28 2 -47 6 -2 1
0 6 3 11 5 8 12 7 23 -2 10 -7 19 -14 21 -15z m241 -259 c0 -2 -9 0 -20 6 -11
6 -20 13 -20 16 0 2 9 0 20 -6 11 -6 20 -13 20 -16z m-113 -200 c-3 -3 -12 -4
-19 -1 -8 3 -5 6 6 6 11 1 17 -2 13 -5z"/>
<path d="M4910 1055 c0 -8 7 -21 16 -30 11 -11 13 -19 6 -28 -6 -7 -8 -34 -5
-60 4 -37 9 -47 20 -43 8 4 16 6 18 6 4 0 -5 132 -9 146 -6 17 -46 25 -46 9z"/>
<path d="M52 1021 c-10 -6 -12 -21 -7 -55 6 -36 11 -46 26 -46 21 0 24 22 13
79 -7 33 -11 36 -32 22z"/>
<path d="M759 1016 c-2 -3 -18 -7 -34 -10 -28 -5 -55 -29 -55 -49 0 -5 -6 -7
-14 -4 -9 4 -20 -7 -32 -31 -14 -29 -16 -52 -10 -121 8 -119 17 -161 31 -161
16 0 27 -38 13 -46 -5 -4 -8 -20 -6 -36 3 -16 1 -31 -4 -34 -5 -3 -6 -9 -3
-13 2 -5 6 -25 9 -44 6 -45 38 -92 78 -113 38 -20 136 -23 147 -5 6 9 11 10
15 2 5 -8 13 -8 29 1 12 7 26 12 31 13 5 0 18 12 29 27 16 21 21 44 22 98 1
66 0 71 -19 69 -42 -3 -67 1 -62 10 4 5 0 12 -6 14 -10 4 -9 8 2 16 23 16 32
13 25 -9 -8 -24 11 -27 41 -6 22 16 24 40 9 106 -10 44 -25 54 -43 29 -8 -11
-20 -18 -27 -15 -8 3 -15 1 -17 -3 -2 -5 -12 1 -23 11 -11 11 -15 18 -10 16
14 -4 59 33 68 55 4 10 11 15 17 12 5 -3 10 0 10 8 0 8 -10 17 -22 21 -34 9
-38 8 -38 -9 0 -9 -9 -28 -20 -43 -25 -34 -34 -76 -20 -102 7 -13 7 -21 0 -25
-6 -4 -8 -10 -5 -14 2 -5 7 -33 10 -64 5 -48 3 -59 -14 -76 -26 -26 -36 -26
-60 -2 -22 22 -41 142 -44 280 -2 93 -2 95 23 101 27 7 64 -6 55 -20 -6 -10
21 -40 37 -40 5 0 8 7 4 15 -3 8 0 14 7 12 7 -1 11 6 9 16 -2 9 3 17 11 17 8
0 18 7 21 16 3 8 11 12 17 9 6 -4 8 -13 5 -21 -4 -9 2 -14 15 -14 16 0 18 3
10 18 -5 9 -18 23 -29 31 -12 9 -17 21 -14 37 5 27 -13 54 -35 54 -10 0 -13
-6 -8 -17 5 -14 3 -15 -6 -6 -8 9 -21 8 -51 -3 l-40 -14 16 25 c9 13 16 27 16
30 0 6 -55 7 -61 1z m-69 -462 c0 -8 -19 -13 -24 -6 -3 5 1 9 9 9 8 0 15 -2
15 -3z m50 -19 c0 -9 -6 -12 -15 -9 -8 4 -12 10 -9 15 8 14 24 10 24 -6z m248
-70 c-3 -3 -14 -7 -25 -9 -11 -3 -37 -14 -58 -25 -21 -11 -41 -19 -43 -16 -7
7 9 25 22 25 8 0 33 9 57 19 39 18 62 20 47 6z"/>
<path d="M325 960 c-38 -8 -83 -37 -95 -61 -14 -25 -14 -25 22 -23 31 2 32 2
13 -12 -17 -13 -18 -16 -5 -24 9 -6 10 -10 3 -10 -6 0 -19 7 -27 16 -28 27
-33 -6 -26 -158 1 -24 7 -38 15 -38 7 0 15 4 17 9 2 5 15 13 30 16 23 6 29 2
42 -24 20 -38 20 -41 -4 -41 -11 0 -20 -5 -20 -11 0 -6 -6 -9 -14 -6 -23 9
-39 -18 -26 -42 9 -17 8 -21 -5 -21 -12 0 -14 -9 -10 -42 7 -57 24 -108 36
-108 6 0 8 -9 4 -20 -10 -30 61 -70 125 -70 36 0 52 4 56 15 4 10 11 12 22 6
10 -5 27 -4 42 2 14 5 30 11 37 13 6 1 21 11 32 21 16 15 19 28 16 58 -2 22
-7 69 -10 104 -2 35 -7 67 -10 70 -5 5 -36 4 -94 -2 -23 -2 -24 -6 -25 -65 -1
-57 -4 -65 -27 -79 -24 -15 -27 -15 -47 5 -24 24 -31 51 -37 132 -4 63 -13
138 -20 160 -7 25 10 95 23 96 6 1 15 3 20 4 4 1 17 1 30 0 15 -1 22 4 22 17
1 17 1 17 11 -1 8 -13 8 -20 1 -25 -37 -23 39 -84 91 -74 27 5 27 6 22 80 -5
92 -10 107 -38 122 -26 13 -149 21 -192 11z m-5 -140 c0 -5 -4 -10 -10 -10 -5
0 -10 5 -10 10 0 6 5 10 10 10 6 0 10 -4 10 -10z m60 -441 c0 -5 -10 -9 -21
-9 -18 0 -19 2 -9 15 12 15 30 12 30 -6z"/>
<path d="M3974 914 c4 -10 4 -15 0 -11 -4 3 -20 -1 -36 -11 -21 -12 -28 -23
-26 -42 2 -19 -1 -24 -14 -22 -14 2 -18 -4 -18 -30 0 -44 9 -55 43 -54 15 1
27 -2 27 -6 0 -4 -13 -8 -30 -8 -19 0 -30 -5 -30 -14 0 -11 12 -13 49 -11 85
5 86 6 86 80 0 45 -4 68 -14 74 -11 7 -11 9 0 13 18 6 5 34 -22 49 -20 10 -21
9 -15 -7z m10 -58 c-3 -8 -12 -12 -20 -9 -17 6 -9 23 11 23 8 0 12 -6 9 -14z"/>
<path d="M69 884 c-12 -14 -11 -16 5 -13 11 2 21 10 24 17 5 17 -13 15 -29 -4z"/>
<path d="M4947 851 c-12 -28 -12 -39 2 -77 9 -24 22 -44 28 -44 17 0 17 52 1
68 -9 9 -9 12 -1 12 7 0 10 11 7 28 -8 44 -22 49 -37 13z"/>
<path d="M64 812 c-5 -4 -8 -16 -8 -27 1 -11 2 -26 3 -34 1 -7 7 -11 14 -8 17
7 23 -63 5 -74 -9 -6 -9 -13 1 -33 9 -16 11 -39 7 -70 -8 -49 3 -59 36 -34 17
13 15 68 -2 68 -9 0 -6 86 4 118 4 11 2 23 -4 27 -6 4 -8 15 -5 26 5 13 2 19
-10 19 -9 0 -14 4 -11 9 7 11 -18 21 -30 13z"/>
<path d="M4970 699 c-13 -7 -12 -9 3 -9 9 0 17 -5 17 -10 0 -16 -51 -60 -69
-60 -9 0 -25 -7 -35 -15 -19 -14 -17 -15 17 -15 24 0 40 5 43 14 3 8 12 12 20
9 24 -9 40 14 36 52 -5 40 -12 48 -32 34z"/>
<path d="M4686 583 c-11 -11 -6 -23 8 -23 8 0 17 4 20 9 7 10 -19 23 -28 14z"/>
<path d="M4273 558 c-29 -5 -53 -14 -53 -19 0 -6 -8 -8 -19 -4 -10 3 -30 0
-45 -6 -20 -10 -23 -15 -14 -26 6 -8 18 -11 27 -7 9 4 48 9 86 11 39 3 80 5
93 6 24 2 29 26 10 45 -13 13 -12 13 -85 0z m47 -22 c0 -2 -7 -7 -16 -10 -8
-3 -12 -2 -9 4 6 10 25 14 25 6z"/>
<path d="M4390 555 c0 -8 4 -15 9 -15 5 0 11 7 15 15 3 9 0 15 -9 15 -8 0 -15
-7 -15 -15z"/>
<path d="M4430 550 c0 -5 7 -10 15 -10 8 0 15 5 15 10 0 6 -7 10 -15 10 -8 0
-15 -4 -15 -10z"/>
<path d="M1673 522 c-12 -2 -24 -10 -27 -19 -4 -10 -2 -14 8 -10 8 3 22 -1 33
-8 17 -13 17 -14 1 -15 -18 0 -26 -20 -9 -20 5 0 16 -3 25 -6 21 -8 21 19 1
36 -10 8 -12 16 -6 19 16 10 -2 27 -26 23z"/>
<path d="M3899 512 c-21 -2 -26 -7 -22 -23 6 -23 26 -25 43 -4 17 20 9 30 -21
27z"/>
<path d="M4013 504 c0 -18 23 -19 30 -1 3 7 -3 13 -12 14 -10 1 -18 -5 -18
-13z"/>
<path d="M3831 491 c-10 -6 -10 -10 -1 -16 13 -8 24 -1 19 14 -3 6 -10 7 -18
2z"/>
<path d="M104 480 c-15 -15 -6 -54 17 -79 23 -25 39 -27 39 -6 0 8 -9 15 -20
15 -20 0 -28 16 -10 22 5 2 11 14 12 28 3 26 -20 38 -38 20z"/>
<path d="M3697 476 c-9 -10 -17 -13 -17 -7 0 6 -7 11 -15 11 -22 0 -18 -27 5
-33 23 -6 54 15 48 33 -3 10 -8 9 -21 -4z"/>
<path d="M3515 458 c-10 -10 -25 -16 -32 -14 -16 6 -29 -14 -15 -23 6 -4 30
-5 52 -3 35 4 41 7 37 23 -3 11 -1 17 4 13 5 -3 9 -1 9 4 0 19 -35 18 -55 0z"/>
<path d="M3280 430 c0 -5 9 -10 20 -10 11 0 20 5 20 10 0 6 -9 10 -20 10 -11
0 -20 -4 -20 -10z"/>
<path d="M1160 420 c0 -5 9 -14 20 -20 20 -11 26 -4 12 15 -10 14 -32 17 -32
5z"/>
<path d="M3120 415 c-17 -20 3 -45 30 -38 22 6 26 18 10 28 -6 4 -8 11 -5 16
10 15 -22 10 -35 -6z"/>
<path d="M3017 413 c-15 -15 -5 -22 28 -21 19 1 35 6 35 12 0 13 -53 20 -63 9z"/>
<path d="M2818 393 c-10 -3 -18 -8 -18 -11 0 -4 -28 -7 -62 -7 -68 -1 -158
-11 -166 -20 -23 -22 73 -35 138 -19 14 4 40 6 58 5 17 0 32 3 32 8 0 5 11 12
25 15 38 10 31 37 -7 29z"/>
<path d="M2874 394 c-7 -3 -10 -13 -7 -22 3 -12 17 -18 49 -20 41 -3 44 -1 44
23 0 22 -4 25 -37 24 -21 0 -43 -3 -49 -5z"/>
<path d="M143 349 c-1 -10 2 -19 8 -19 11 0 12 27 1 34 -4 2 -9 -4 -9 -15z"/>
<path d="M2362 320 c-10 -26 -10 -26 24 -16 40 13 44 32 9 38 -19 4 -26 0 -33
-22z"/>
<path d="M2485 340 c-11 -4 -26 -5 -32 -3 -7 3 -13 1 -13 -5 0 -5 18 -14 39
-20 35 -8 42 -7 59 13 19 22 19 22 -8 22 -14 0 -35 -3 -45 -7z"/>
<path d="M2160 298 c0 -22 26 -24 34 -2 9 22 8 23 -14 21 -12 -1 -20 -8 -20
-19z"/>
<path d="M2270 309 c0 -6 -6 -9 -13 -6 -8 3 -14 -1 -14 -9 0 -9 11 -13 34 -11
34 2 45 20 17 31 -21 8 -24 8 -24 -5z"/>
<path d="M2059 306 c-2 -2 -26 -6 -54 -9 -32 -3 -49 -9 -47 -16 1 -8 -2 -9
-10 -4 -16 10 -58 11 -58 2 0 -4 -9 -5 -20 -2 -11 3 -27 -1 -36 -8 -9 -7 -26
-15 -37 -16 -12 -2 -26 -8 -31 -13 -15 -15 22 -24 39 -10 8 7 26 10 39 8 15
-3 27 2 35 14 10 17 14 17 47 3 45 -19 68 -19 61 -1 -4 10 4 12 39 8 42 -4 44
-3 44 22 0 25 -2 30 -11 22z"/>
<path d="M160 289 c0 -5 5 -7 10 -4 6 3 10 8 10 11 0 2 -4 4 -10 4 -5 0 -10
-5 -10 -11z"/>
<path d="M1711 261 c-28 -8 -41 -51 -15 -51 27 0 54 20 54 40 0 21 -2 22 -39
11z"/>
<path d="M123 244 c-9 -25 11 -38 36 -22 28 17 27 33 -4 36 -16 1 -28 -4 -32
-14z"/>
<path d="M1380 211 c-20 -13 -12 -19 35 -26 37 -5 77 7 64 20 -11 11 -84 15
-99 6z"/>
<path d="M1320 190 c0 -5 4 -10 9 -10 6 0 13 5 16 10 3 6 -1 10 -9 10 -9 0
-16 -4 -16 -10z"/>
<path d="M1222 181 c-11 -7 -11 -9 0 -13 17 -6 38 1 38 13 0 11 -21 11 -38 0z"/>
<path d="M1010 160 c0 -5 9 -10 20 -10 11 0 20 5 20 10 0 6 -9 10 -20 10 -11
0 -20 -4 -20 -10z"/>
<path d="M170 136 c0 -19 -4 -23 -20 -19 -21 6 -23 3 -14 -21 4 -11 12 -13 29
-6 13 5 26 6 29 3 8 -8 8 15 0 45 -8 29 -24 28 -24 -2z"/>
<path d="M823 143 c-26 -5 -30 -18 -8 -27 20 -7 68 11 60 24 -6 10 -13 11 -52
3z"/>
<path d="M660 134 c-8 -1 -36 -5 -61 -9 -26 -3 -54 -12 -64 -19 -16 -11 -5
-13 75 -10 51 1 98 8 103 13 8 8 3 11 -17 11 -15 0 -25 4 -21 10 3 6 5 9 3 9
-2 -1 -10 -3 -18 -5z"/>
<path d="M424 105 c-9 -23 9 -37 39 -30 26 7 46 35 24 35 -7 0 -22 3 -34 6
-16 4 -25 1 -29 -11z"/>
<path d="M176 72 c-13 -12 -5 -22 19 -22 14 0 25 4 25 9 0 10 -36 21 -44 13z"/>
</g>
</svg>
